<?xml version="1.0" standalone="no"?>
<!DOCTYPE svg PUBLIC "-//W3C//DTD SVG 20010904//EN"
 "http://www.w3.org/TR/2001/REC-SVG-20010904/DTD/svg10.dtd">
<svg version="1.0" xmlns="http://www.w3.org/2000/svg"
 width="600.000000pt" height="600.000000pt" viewBox="0 0 600.000000 600.000000"
 preserveAspectRatio="xMidYMid meet">
<metadata>
Created by potrace 1.11, written by Peter Selinger 2001-2013
</metadata>
<g transform="translate(0.000000,600.000000) scale(0.100000,-0.100000)"
fill="#000000" stroke="none">
<path d="M255 5970 c-8 -13 5 -13 25 0 13 8 13 10 -2 10 -9 0 -20 -4 -23 -10z"/>
<path d="M2649 5934 c-59 -7 -122 -16 -140 -20 -19 -4 -36 -8 -39 -9 -57 -11
-76 -15 -80 -14 -3 0 -17 -4 -33 -10 -15 -6 -38 -13 -50 -15 -42 -8 -155 -49
-297 -105 -186 -75 -478 -260 -640 -406 -168 -151 -351 -366 -466 -550 -65
-104 -177 -335 -223 -462 -72 -198 -123 -429 -138 -628 -12 -166 -6 -454 12
-545 2 -13 7 -42 10 -65 5 -32 24 -134 30 -155 1 -3 5 -23 10 -45 5 -22 10
-42 10 -45 39 -171 175 -483 290 -670 121 -195 281 -386 446 -533 83 -75 91
-81 134 -113 22 -16 42 -32 45 -35 8 -9 181 -123 234 -153 141 -82 398 -192
511 -220 6 -2 30 -9 55 -16 58 -17 57 -17 76 -19 8 0 12 -5 9 -11 -3 -6 1 -7
9 -4 9 3 23 -1 31 -10 19 -18 74 -16 -517 -20 -382 -2 -373 0 -413 -84 l-19
-42 -106 -1 c-312 -2 -1135 -9 -1135 -10 0 0 -45 -2 -100 -3 -103 -2 -103 -2
-96 -44 0 -4 16 -13 34 -21 17 -8 56 -29 85 -48 29 -18 54 -33 56 -33 3 0 39
-21 82 -46 43 -25 87 -50 98 -55 20 -9 51 -27 170 -96 31 -18 60 -33 66 -33 5
0 10 -4 10 -9 0 -5 14 -14 30 -21 23 -10 28 -16 20 -25 -9 -11 -417 -257 -494
-299 -73 -39 -166 -100 -166 -108 0 -6 388 -9 1103 -6 l1102 3 3 55 c2 30 7
59 12 64 8 8 1402 17 1426 9 7 -3 10 -26 9 -59 -1 -30 3 -58 9 -61 14 -9 2156
-11 2150 -2 -2 4 1 9 8 11 6 2 8 10 4 17 -6 9 -11 9 -24 -1 -15 -12 -16 -11
-3 5 12 16 16 16 31 2 15 -13 17 -13 17 0 0 8 -2 13 -5 10 -2 -2 -19 7 -37 20
-17 14 -37 25 -43 25 -7 0 -12 4 -12 8 0 4 -16 14 -35 21 -19 7 -35 17 -35 22
0 5 -4 9 -9 9 -8 0 -68 34 -156 87 -11 7 -27 15 -35 19 -8 4 -47 27 -86 50
-39 24 -76 44 -82 44 -7 0 -12 4 -12 9 0 5 -10 13 -22 17 -30 9 -67 36 -68 49
0 12 4 15 169 110 69 40 188 109 265 154 76 44 140 81 143 81 4 0 23 15 53 42
10 9 21 15 24 12 4 -2 -1 4 -9 14 -15 16 -64 17 -708 18 -824 2 -747 0 -747
20 0 29 -34 73 -69 90 -30 14 -89 16 -495 16 -445 0 -545 5 -466 23 19 5 42
10 50 11 39 6 76 17 196 56 71 23 131 42 134 43 9 3 43 17 90 38 344 150 624
355 884 647 119 134 271 367 358 550 90 189 175 448 194 589 2 18 6 36 9 40 2
4 7 30 10 58 3 27 8 60 10 74 22 113 22 533 0 619 -2 8 -6 38 -10 65 -3 28
-10 68 -15 90 -5 22 -12 56 -15 75 -3 19 -15 69 -26 110 -25 93 -24 89 -37
123 -7 16 -12 32 -12 36 0 21 -90 230 -142 331 -57 109 -163 280 -214 345 -14
17 -28 35 -32 40 -68 94 -258 287 -373 381 -337 276 -755 463 -1159 520 -19 2
-46 7 -60 11 -47 11 -514 9 -621 -3z m451 -888 c36 -3 79 -8 95 -11 17 -3 41
-8 55 -10 81 -14 108 -22 240 -68 302 -105 580 -328 767 -614 72 -110 168
-314 187 -398 2 -5 8 -30 15 -55 16 -54 23 -88 36 -170 16 -98 21 -304 11
-400 -13 -119 -27 -189 -58 -290 -11 -36 -21 -72 -23 -80 -4 -18 -65 -160 -91
-210 -26 -52 -137 -219 -175 -265 -41 -49 -169 -178 -227 -227 -167 -144 -433
-269 -680 -320 -151 -30 -393 -32 -572 -2 -102 16 -240 60 -348 110 -41 19
-76 34 -78 34 -10 0 -186 113 -239 155 -87 66 -208 189 -273 275 -31 41 -60
77 -64 78 -5 2 -8 8 -8 13 0 5 -15 32 -34 61 -53 84 -102 187 -140 297 -142
408 -113 858 82 1246 39 79 146 242 193 295 160 182 305 297 502 399 88 45
259 108 322 118 17 3 35 9 41 14 6 5 13 7 15 5 2 -2 24 0 49 5 25 4 83 11 130
15 47 3 86 7 87 8 3 2 117 -3 183 -8z m2805 -4126 c3 -5 1 -10 -4 -10 -6 0
-11 5 -11 10 0 6 2 10 4 10 3 0 8 -4 11 -10z"/>
<path d="M2412 4601 c-7 -4 -19 -31 -28 -60 -8 -30 -33 -93 -54 -141 -86 -196
-88 -306 -6 -426 17 -26 22 -41 16 -50 -14 -16 -129 -72 -165 -79 -16 -3 -41
-8 -55 -11 -38 -8 -88 -8 -157 -1 -37 5 -64 4 -68 -2 -13 -22 41 -103 125
-189 32 -33 134 -92 198 -114 95 -32 259 -32 351 1 115 40 223 121 285 215 66
100 57 131 -30 101 -120 -41 -297 -9 -380 68 l-26 24 50 94 c28 52 57 117 64
144 28 98 9 219 -55 357 -32 69 -45 82 -65 69z"/>
<path d="M3363 4046 c-53 -25 -136 -100 -218 -199 -26 -32 -50 -55 -52 -53 -9
9 -95 -23 -128 -48 -36 -28 -85 -119 -85 -160 0 -16 -25 -55 -70 -110 -72 -87
-86 -126 -53 -144 22 -13 64 0 94 29 37 35 78 69 85 69 23 0 194 142 194 162
0 13 76 115 124 166 46 49 149 132 164 132 19 0 21 -30 6 -67 -20 -46 -131
-158 -249 -248 -49 -38 -92 -72 -95 -75 -3 -3 -18 -16 -35 -28 -66 -50 -159
-149 -177 -189 -15 -34 -16 -47 -8 -64 7 -11 9 -24 5 -27 -7 -7 -274 -9 -360
-2 -63 5 -85 -2 -85 -25 0 -30 195 -44 424 -31 61 4 87 1 110 -11 33 -18 147
-25 181 -13 51 19 143 21 197 5 83 -25 141 -28 210 -9 35 9 68 17 73 17 16 0
95 -12 158 -24 66 -13 183 -7 241 13 43 14 51 25 37 47 -8 12 -16 13 -48 3
-39 -12 -123 -24 -123 -18 0 1 20 13 44 26 49 25 121 94 161 153 29 43 30 50
12 65 -16 13 -26 6 -57 -38 -90 -129 -198 -183 -375 -185 -55 -1 -111 -5 -125
-9 -63 -19 -98 -22 -130 -11 -45 15 -31 22 65 29 44 4 94 9 110 13 17 3 39 7
50 9 11 1 23 3 26 3 3 1 23 15 44 31 45 36 77 80 96 133 12 34 39 61 62 62 24
1 75 57 81 90 5 23 22 51 53 81 40 40 45 50 41 82 -4 31 0 40 28 64 36 32 54
75 52 126 -1 17 -2 32 -4 32 -1 0 -26 -16 -55 -35 -30 -19 -87 -49 -129 -65
-41 -17 -95 -40 -120 -50 -25 -11 -69 -22 -99 -25 -81 -8 -175 -56 -270 -137
-60 -53 -45 -20 37 81 102 125 132 179 132 240 -1 130 -119 196 -247 137z"/>
<path d="M2415 3092 c-32 -4 -46 -18 -38 -38 3 -9 36 -13 111 -13 390 -5 458
-8 492 -22 41 -18 103 -17 180 3 63 16 106 14 205 -11 80 -20 117 -20 198 2
32 9 68 14 80 11 12 -2 38 -6 58 -9 20 -3 50 -10 68 -15 34 -9 165 -7 213 4
57 13 79 26 76 44 -4 19 -38 24 -76 10 -36 -12 -147 -17 -189 -8 -122 28 -190
29 -278 8 -55 -14 -66 -13 -135 4 -102 25 -166 29 -230 12 -71 -18 -119 -18
-177 2 -29 10 -72 16 -108 14 -93 -3 -190 -3 -310 2 -60 3 -123 3 -140 0z"/>
<path d="M2670 2908 c-16 -15 -20 -27 -15 -54 3 -22 1 -33 -5 -29 -5 3 -10 -3
-10 -14 0 -12 7 -21 15 -21 11 0 15 -19 17 -92 3 -78 6 -93 20 -96 15 -3 18 8
20 90 l3 93 52 5 c56 6 73 3 73 -11 0 -5 -15 -9 -33 -9 -42 0 -67 -26 -67 -68
0 -36 33 -72 66 -72 12 0 24 -7 28 -15 3 -8 12 -15 21 -15 12 0 15 16 15 95
l0 95 28 1 c15 0 64 1 110 2 68 2 82 -1 82 -13 0 -13 -14 -16 -67 -17 -92 -3
-103 -6 -120 -34 -33 -54 32 -115 78 -73 13 12 19 27 16 41 -2 13 0 23 4 23 5
0 9 -6 10 -12 3 -50 25 -78 61 -78 10 0 21 -7 24 -15 4 -8 15 -15 26 -15 16 0
19 5 15 22 -4 12 -2 27 4 34 7 8 5 17 -6 28 -21 21 -32 20 -45 -4 -15 -27 -40
-14 -40 21 0 30 6 33 59 31 19 -1 22 3 18 23 -5 31 9 41 53 39 19 -1 50 -3 68
-3 39 -1 40 -26 1 -26 -47 -1 -68 -15 -78 -52 -13 -44 9 -98 42 -107 32 -8 38
13 11 39 -41 41 -27 82 26 81 23 -1 25 -5 27 -55 3 -53 15 -82 29 -68 4 4 7
44 8 89 1 83 9 113 27 103 5 -4 9 0 9 8 0 8 -13 20 -30 26 -16 5 -30 16 -30
24 0 8 -13 29 -29 46 -34 36 -71 42 -71 11 0 -11 7 -20 15 -20 19 0 68 -47 61
-58 -3 -5 -336 -8 -407 -3 -9 0 -20 12 -23 25 -3 13 -22 34 -42 47 -48 29 -97
32 -124 7z m122 -58 c10 -11 17 -21 16 -21 -2 -1 -24 -3 -50 -5 -50 -3 -75 13
-64 42 9 22 72 12 98 -16z m38 -143 c0 -30 -6 -36 -31 -30 -18 5 -26 33 -12
46 16 17 43 6 43 -16z m130 -7 c0 -11 -4 -20 -9 -20 -14 0 -23 18 -16 30 10
17 25 11 25 -10z"/>
<path d="M1856 2898 c-9 -13 -13 -32 -9 -49 3 -16 1 -29 -4 -29 -5 0 -10 -7
-10 -15 0 -8 6 -15 14 -15 15 0 15 -1 18 -100 3 -101 3 -99 23 -93 16 4 17 15
14 99 l-4 94 66 0 c47 0 66 -4 66 -13 0 -8 -12 -12 -35 -11 -40 2 -53 -10 -59
-57 -5 -41 25 -79 61 -79 13 0 26 -7 29 -15 4 -8 14 -15 24 -15 15 0 17 10 16
86 -1 47 3 89 9 93 14 10 85 13 85 4 0 -5 -14 -14 -31 -22 -30 -13 -30 -14
-24 -68 7 -68 23 -87 73 -81 20 3 45 0 55 -6 27 -17 34 4 33 94 -1 75 0 79 22
85 13 3 33 3 43 0 27 -9 20 -40 -8 -39 -28 1 -33 -13 -19 -55 8 -26 20 -37 46
-46 22 -8 41 -9 53 -3 17 9 22 1 18 -30 -2 -8 5 -12 16 -10 16 3 18 14 18 88
0 61 3 87 13 93 22 14 27 0 31 -94 3 -77 5 -90 19 -87 14 3 17 18 17 93 0 77
2 90 18 93 25 5 21 32 -5 33 -13 0 -134 1 -270 1 -143 0 -245 4 -242 9 12 21
-76 80 -126 85 -31 3 -42 -1 -54 -18z m109 -30 c53 -35 46 -50 -22 -46 -46 2
-58 7 -61 21 -10 50 27 61 83 25z m260 -141 c1 -36 -4 -56 -15 -64 -22 -18
-60 -16 -60 2 0 9 10 15 26 15 19 0 25 4 22 18 -2 11 -12 17 -31 16 -15 0 -26
5 -24 10 2 6 15 11 28 11 17 0 24 6 24 20 0 20 15 38 24 29 3 -3 6 -28 6 -57z
m193 17 c3 -49 -8 -66 -42 -66 -40 0 -44 11 -13 34 19 14 27 28 27 50 0 45 24
29 28 -18z m-393 -44 c0 -26 -20 -34 -42 -17 -9 7 -10 14 -2 29 14 27 44 19
44 -12z"/>
<path d="M3463 2820 c-2 -3 -23 -5 -46 -5 -33 0 -43 -5 -53 -24 -17 -33 1 -71
33 -71 12 0 23 -5 23 -11 0 -6 -15 -9 -37 -7 -28 2 -37 -1 -39 -15 -1 -9 3
-17 9 -17 7 -1 24 -19 39 -40 31 -44 52 -50 68 -20 10 18 3 26 -16 18 -3 -2
-10 5 -15 15 -8 13 -4 23 17 42 23 21 26 30 21 65 -5 42 0 46 58 40 26 -3 25
-2 18 -28 -3 -12 -13 -22 -22 -22 -25 0 -41 -20 -41 -50 0 -29 27 -60 53 -60
23 0 49 30 44 51 -5 19 24 36 43 24 13 -8 3 -69 -12 -74 -26 -9 -49 -43 -43
-64 15 -50 77 -74 109 -41 24 24 19 36 -11 30 -34 -7 -58 6 -50 28 4 9 10 16
14 15 30 -5 33 3 32 92 0 50 2 93 5 96 9 9 125 10 139 1 18 -11 1 -21 -39 -24
-46 -3 -64 -21 -71 -70 -4 -33 -1 -43 24 -66 20 -19 32 -25 43 -18 12 8 11 13
-8 33 -39 41 -21 93 30 85 20 -3 22 -8 23 -62 0 -36 5 -61 12 -63 20 -7 27 19
25 104 -1 91 -7 83 65 86 37 1 39 -28 2 -50 -38 -22 -48 -68 -22 -95 28 -28
72 -15 80 23 5 28 8 31 35 33 19 2 17 -72 -2 -97 -17 -20 -17 -22 4 -37 31
-24 54 -31 62 -18 4 6 -4 19 -17 29 -17 14 -21 21 -12 27 8 5 13 41 15 97 2
72 6 90 18 90 8 0 16 7 18 16 3 15 -24 17 -308 15 -172 0 -314 -3 -317 -6z
m-41 -62 c-9 -9 -15 -9 -24 0 -10 10 -10 15 2 22 20 12 38 -6 22 -22z m201 18
c8 -20 -20 -43 -35 -28 -14 14 -3 42 16 42 7 0 16 -6 19 -14z m395 -3 c-3 -19
-27 -34 -40 -26 -5 2 -8 13 -8 24 0 14 7 19 25 19 19 0 25 -5 23 -17z m-478
-89 c0 -14 -12 -19 -23 -8 -9 9 4 35 14 28 5 -3 9 -12 9 -20z m389 -9 c-6 -6
-13 -5 -19 5 -6 9 -5 17 3 22 15 9 29 -14 16 -27z"/>
<path d="M5890 79 c0 -5 5 -7 10 -4 6 3 10 8 10 11 0 2 -4 4 -10 4 -5 0 -10
-5 -10 -11z"/>
<path d="M5915 30 c3 -5 8 -10 11 -10 2 0 4 5 4 10 0 6 -5 10 -11 10 -5 0 -7
-4 -4 -10z"/>
</g>
</svg>
